<?xml version="1.0" standalone="no"?>
<!DOCTYPE svg PUBLIC "-//W3C//DTD SVG 20010904//EN"
 "http://www.w3.org/TR/2001/REC-SVG-20010904/DTD/svg10.dtd">
<svg version="1.0" xmlns="http://www.w3.org/2000/svg"
 width="956.000000pt" height="944.000000pt" viewBox="0 0 956.000000 944.000000"
 preserveAspectRatio="xMidYMid meet">

<g transform="translate(0.000000,944.000000) scale(0.100000,-0.100000)"
fill="#000000" stroke="none">
<path d="M0 4720 l0 -4720 4780 0 4780 0 0 4720 0 4720 -4780 0 -4780 0 0
-4720z m8890 -15 l0 -4025 -4035 0 -4035 0 0 4025 0 4025 4035 0 4035 0 0
-4025z"/>
<path d="M1070 4700 l0 -3780 3785 0 3785 0 0 3780 0 3780 -3785 0 -3785 0 0
-3780z m1480 2456 c282 -62 459 -224 520 -477 11 -46 20 -95 20 -108 l0 -23
-192 4 c-228 6 -253 13 -268 69 -15 56 -71 113 -146 150 -127 63 -333 48 -441
-30 -57 -41 -78 -96 -63 -167 18 -87 82 -126 310 -190 367 -103 525 -165 654
-254 165 -114 226 -247 213 -458 -12 -177 -59 -292 -160 -391 -91 -90 -179
-142 -342 -202 l-90 -34 -215 0 c-285 1 -405 25 -584 118 -189 98 -297 256
-344 505 l-19 102 201 0 c229 0 273 -8 281 -48 19 -92 28 -108 93 -172 74 -71
143 -110 242 -136 113 -29 283 -1 355 59 59 48 75 94 75 218 l0 105 -302 99
c-646 210 -732 254 -809 418 -46 101 -62 179 -56 282 13 225 146 410 373 521
130 64 193 74 404 69 138 -3 200 -10 290 -29z m1360 -831 l0 -845 390 0 390 0
0 -205 0 -205 -615 0 -615 0 0 1050 0 1050 225 0 225 0 0 -845z m2314 377
c454 -1123 636 -1577 636 -1589 0 -28 -46 -36 -259 -40 l-216 -5 -71 208 -70
209 -403 3 -402 2 -17 -42 c-10 -24 -45 -118 -78 -210 l-59 -168 -125 0 c-158
1 -320 16 -337 32 -14 15 48 179 354 938 418 1035 437 1082 461 1098 37 24 80
30 242 31 l155 1 189 -468z m-4162 -2782 c49 -91 201 -367 336 -614 l247 -449
6 49 c3 27 9 249 13 494 3 245 9 500 13 568 l6 122 243 0 244 0 0 -1050 0
-1050 -242 2 -243 3 -112 205 c-334 611 -589 1070 -595 1070 -5 0 -8 -288 -8
-640 l0 -640 -225 0 -225 0 0 1050 0 1050 226 -2 225 -3 91 -165z m1938 160
c451 -18 542 -40 740 -173 196 -133 345 -350 411 -603 21 -78 24 -112 24 -269
0 -165 -2 -188 -27 -277 -85 -305 -283 -539 -558 -659 -185 -82 -292 -97 -722
-106 l-328 -6 0 1051 0 1052 113 0 c61 0 218 -5 347 -10z m2573 -2 c3 -7 134
-332 292 -723 158 -390 341 -842 406 -1004 65 -162 119 -302 119 -312 0 -40
-23 -44 -253 -44 l-220 0 -43 130 c-24 72 -55 163 -70 203 l-26 72 -406 -2
-406 -3 -58 -160 c-32 -88 -65 -179 -74 -202 l-16 -43 -151 0 c-159 1 -294 13
-310 29 -14 14 6 66 309 821 440 1099 479 1193 507 1214 37 27 83 34 248 35
109 1 148 -2 152 -11z m1389 -1614 c62 -21 121 -74 152 -136 33 -65 33 -110 1
-174 -25 -50 -122 -156 -166 -180 -67 -37 -200 7 -279 92 -115 125 -58 341
106 399 52 19 130 18 186 -1z"/>
<path d="M5806 6511 c-47 -91 -99 -226 -157 -401 -48 -146 -55 -177 -44 -189
32 -32 428 -33 460 0 13 13 5 42 -64 239 -90 255 -149 400 -162 400 -5 0 -20
-22 -33 -49z"/>
<path d="M3990 3040 l0 -651 38 7 c306 53 409 98 533 231 182 197 208 465 71
728 -68 129 -187 225 -342 274 -49 15 -271 61 -297 61 -2 0 -3 -293 -3 -650z"/>
<path d="M6354 3455 c-38 -57 -130 -297 -200 -517 -22 -68 -25 -91 -16 -100
33 -33 432 -32 465 1 9 9 -1 48 -42 169 -68 199 -170 460 -181 467 -5 3 -17
-6 -26 -20z"/>
</g>
</svg>
